<?xml version="1.0" encoding="UTF-8" standalone="no"?>
<!-- Created with Inkscape (http://www.inkscape.org/) -->

<svg
   xmlns:osb="http://www.openswatchbook.org/uri/2009/osb"
   xmlns:dc="http://purl.org/dc/elements/1.1/"
   xmlns:cc="http://creativecommons.org/ns#"
   xmlns:rdf="http://www.w3.org/1999/02/22-rdf-syntax-ns#"
   xmlns:svg="http://www.w3.org/2000/svg"
   xmlns="http://www.w3.org/2000/svg"
   xmlns:sodipodi="http://sodipodi.sourceforge.net/DTD/sodipodi-0.dtd"
   xmlns:inkscape="http://www.inkscape.org/namespaces/inkscape"
   width="1298mm"
   height="401mm"
   viewBox="0 0 1298 401"
   version="1.1"
   id="svg8"
   sodipodi:docname="frameworkandpluto.svg"
   inkscape:version="0.92.1 r15371"
   inkscape:export-filename="C:\Users\masinger\Pictures\frameworkandpluto.png"
   inkscape:export-xdpi="16.290001"
   inkscape:export-ydpi="16.290001">
  <defs
     id="defs2">
    <linearGradient
       osb:paint="solid"
       id="linearGradient14221">
      <stop
         id="stop14219"
         offset="0"
         style="stop-color:#000000;stop-opacity:1;" />
    </linearGradient>
    <marker
       inkscape:isstock="true"
       orient="auto"
       refY="0"
       refX="0"
       id="InfiniteLineStart"
       inkscape:stockid="InfiniteLineStart"
       style="overflow:visible">
      <g
         transform="translate(-13)"
         style="fill:#000000;fill-opacity:1;stroke:#000000;stroke-opacity:1"
         id="g12547">
        <circle
           style="fill:#000000;fill-opacity:1;stroke:#000000;stroke-opacity:1"
           cx="3"
           cy="0"
           r="0.80000001"
           id="circle12541" />
        <circle
           style="fill:#000000;fill-opacity:1;stroke:#000000;stroke-opacity:1"
           cx="6.5"
           cy="0"
           r="0.80000001"
           id="circle12543" />
        <circle
           style="fill:#000000;fill-opacity:1;stroke:#000000;stroke-opacity:1"
           cx="10"
           cy="0"
           r="0.80000001"
           id="circle12545" />
      </g>
    </marker>
    <marker
       inkscape:isstock="true"
       style="overflow:visible"
       id="Arrow1Lend"
       refX="0"
       refY="0"
       orient="auto"
       inkscape:stockid="Arrow1Lend">
      <path
         inkscape:connector-curvature="0"
         transform="matrix(-0.8,0,0,-0.8,-10,0)"
         style="fill:#000000;fill-opacity:1;fill-rule:evenodd;stroke:#000000;stroke-width:1.00000003pt;stroke-opacity:1"
         d="M 0,0 5,-5 -12.5,0 5,5 Z"
         id="path12300" />
    </marker>
    <marker
       inkscape:isstock="true"
       style="overflow:visible"
       id="marker12581"
       refX="0"
       refY="0"
       orient="auto"
       inkscape:stockid="Arrow1Lstart">
      <path
         inkscape:connector-curvature="0"
         transform="matrix(0.8,0,0,0.8,10,0)"
         style="fill:#000000;fill-opacity:1;fill-rule:evenodd;stroke:#000000;stroke-width:1.00000003pt;stroke-opacity:1"
         d="M 0,0 5,-5 -12.5,0 5,5 Z"
         id="path12579" />
    </marker>
    <marker
       inkscape:isstock="true"
       style="overflow:visible"
       id="Arrow1Lstart"
       refX="0"
       refY="0"
       orient="auto"
       inkscape:stockid="Arrow1Lstart">
      <path
         inkscape:connector-curvature="0"
         transform="matrix(0.8,0,0,0.8,10,0)"
         style="fill:#000000;fill-opacity:1;fill-rule:evenodd;stroke:#000000;stroke-width:1.00000003pt;stroke-opacity:1"
         d="M 0,0 5,-5 -12.5,0 5,5 Z"
         id="path12297" />
    </marker>
  </defs>
  <sodipodi:namedview
     id="base"
     pagecolor="#ffffff"
     bordercolor="#666666"
     borderopacity="1.0"
     inkscape:pageopacity="0.0"
     inkscape:pageshadow="2"
     inkscape:zoom="0.15"
     inkscape:cx="2500.9694"
     inkscape:cy="560"
     inkscape:document-units="mm"
     inkscape:current-layer="layer1"
     showgrid="false"
     inkscape:window-width="2560"
     inkscape:window-height="1377"
     inkscape:window-x="-8"
     inkscape:window-y="-8"
     inkscape:window-maximized="1" />
  <metadata
     id="metadata5">
    <rdf:RDF>
      <cc:Work
         rdf:about="">
        <dc:format>image/svg+xml</dc:format>
        <dc:type
           rdf:resource="http://purl.org/dc/dcmitype/StillImage" />
        <dc:title></dc:title>
      </cc:Work>
    </rdf:RDF>
  </metadata>
  <g
     inkscape:label="Layer 1"
     inkscape:groupmode="layer"
     id="layer1"
     transform="translate(0,104)">
    <g
       id="layer1-9"
       inkscape:label="Layer 1"
       transform="matrix(0.57482282,0,0,0.57482282,514.79807,107.68895)">
      <text
         id="text11400"
         y="270.20663"
         x="-2.3452485"
         style="font-style:normal;font-weight:normal;font-size:336.49588013px;line-height:1.25;font-family:sans-serif;letter-spacing:0px;word-spacing:0px;fill:#483e37;fill-opacity:1;stroke:none;stroke-width:8.41239643"
         xml:space="preserve"><tspan
           style="line-height:1.25;letter-spacing:0px;fill:#483e37;fill-opacity:1;stroke-width:8.41239643"
           y="270.20663"
           x="-2.3452485"
           id="tspan11398"
           sodipodi:role="line">Plut</tspan></text>
      <g
         transform="translate(647.99636,71.208125)"
         id="g11416">
        <g
           inkscape:label="Background"
           id="layer1-4"
           transform="translate(0,-87)" />
        <g
           id="layer2"
           inkscape:label="Planet"
           style="display:inline">
          <path
             inkscape:connector-curvature="0"
             style="fill:#c87137;fill-opacity:1;stroke-width:0.92055064"
             d="M 397,37.701172 A 371,360 0 0 0 26,397.70117 a 371,360 0 0 0 371,360 371,360 0 0 0 371,-360 A 371,360 0 0 0 397,37.701172 Z m -1,127.999998 a 231.5833,230.99995 0 0 1 231.58398,231 231.5833,230.99995 0 0 1 -231.58398,231 231.5833,230.99995 0 0 1 -231.58398,-231 231.5833,230.99995 0 0 1 231.58398,-231 z"
             transform="scale(0.26458333)"
             id="path3699" />
        </g>
        <g
           id="layer4"
           inkscape:label="Herz"
           style="display:inline">
          <path
             style="fill:#abc837;stroke-width:0.35876721"
             d="m 134.25169,124.08148 c 7.5514,-36.500632 38.92897,-26.449567 37.46279,1.16065 21.48401,-32.151403 38.61442,-13.5126 32.87073,9.80415 -2.66103,13.06485 -15.64608,33.83582 -32.38653,48.12598 -16.74045,14.29016 -34.0613,22.62867 -50.42097,24.32236 -23.647897,2.44823 -30.247468,-7.93882 -30.247468,-7.93882 3.80834,0.4218 5.454163,0.61794 10.729218,0.85225 0,0 4.97645,1.44727 7.28391,1.01835 23.25995,-4.32359 18.44341,-34.08862 24.70832,-77.34492 z"
             id="path11369"
             inkscape:connector-curvature="0"
             sodipodi:nodetypes="cccssccsc" />
        </g>
      </g>
    </g>
    <g
       id="g82"
       transform="translate(12.481479,-94.938275)">
      <g
         transform="translate(0,-84)"
         id="layer1-7"
         inkscape:label="Background">
        <text
           transform="matrix(0.99045745,0.00381563,-0.00389127,1.0096195,0,0)"
           id="text11428"
           y="239.4034"
           x="61.167305"
           style="font-style:normal;font-weight:normal;font-size:151.29685974px;line-height:1.25;font-family:sans-serif;letter-spacing:0px;word-spacing:0px;fill:#000000;fill-opacity:1;stroke:none;stroke-width:3.78242159"
           xml:space="preserve"><tspan
             style="font-style:normal;font-variant:normal;font-weight:normal;font-stretch:normal;font-family:Terminal;-inkscape-font-specification:Terminal;stroke-width:3.78242159"
             y="239.4034"
             x="61.167305"
             id="tspan11426"
             sodipodi:role="line">ENetFramework</tspan></text>
      </g>
      <g
         transform="translate(0,-84)"
         inkscape:label="orbit"
         id="layer5">
        <path
           inkscape:connector-curvature="0"
           d="m 156.49188,257.14224 c -8.45558,6.45411 -18.31623,11.35701 -29.2661,14.17411 -43.799506,11.26836 -87.139977,-15.45877 -99.709202,-58.90284 -3.992127,-13.79833 -4.610663,-36.90976 4.954065,-53.09776 8.347816,-14.12842 17.076805,-7.83042 21.812301,-18.76879 m -13.895383,4.39449 c 10.659317,-18.04381 24.132102,-26.60295 46.031853,-32.23713 21.899746,-5.63418 44.009956,-1.85835 62.053776,8.80096"
           style="opacity:1;fill:none;fill-opacity:1;stroke:#000000;stroke-width:5;stroke-linecap:butt;stroke-miterlimit:3;stroke-dasharray:none;stroke-dashoffset:0;stroke-opacity:1"
           id="path11437" />
        <path
           inkscape:connector-curvature="0"
           id="path14243"
           d="m 179.06361,256.54489 c -12.9463,14.52203 -31.86167,25.26254 -48.67347,29.72603 C 78.210202,299.69534 25.027372,268.27778 11.602956,216.09785 -1.8214583,163.91791 29.596099,110.73508 81.776033,97.310667 c 26.089977,-6.71221 52.430667,-2.213915 73.926907,10.484903 5.37407,3.17471 10.44536,6.86195 15.13426,11.01469"
           style="opacity:1;fill:none;fill-opacity:1;stroke:#000000;stroke-width:5;stroke-miterlimit:3;stroke-dasharray:none;stroke-dashoffset:0" />
        <circle
           r="0"
           cy="151.74376"
           cx="102.65833"
           id="path11437-3-1"
           style="opacity:1;fill:none;fill-opacity:1;stroke:#000000;stroke-width:2;stroke-miterlimit:4;stroke-dasharray:none" />
        <circle
           transform="rotate(-14.427689)"
           r="10.469844"
           cy="181.84077"
           cx="-18.824057"
           id="path12277"
           style="opacity:1;fill:#ff6600;fill-opacity:1;stroke:#000000;stroke-width:3.49156404;stroke-miterlimit:4;stroke-dasharray:none" />
      </g>
      <g
         transform="translate(0,-84)"
         inkscape:label="planet"
         id="layer6">
        <circle
           transform="rotate(-14.427689)"
           r="11.331952"
           cy="116.29894"
           cx="29.828081"
           id="path12245"
           style="opacity:1;fill:#ffcc00;fill-opacity:1;stroke:#000000;stroke-width:3.61938834;stroke-miterlimit:4;stroke-dasharray:none" />
      </g>
    </g>
    <text
       xml:space="preserve"
       style="font-style:normal;font-weight:normal;font-size:8.83650303px;line-height:1.25;font-family:sans-serif;letter-spacing:0px;word-spacing:0px;fill:#c87137;fill-opacity:1;stroke:none;stroke-width:0.22091258"
       x="217.01289"
       y="262.14526"
       id="text963"><tspan
         sodipodi:role="line"
         id="tspan961"
         x="217.01289"
         y="262.14526"
         style="font-size:141.38404846px;fill:#c87137;fill-opacity:1;stroke-width:0.22091258">and</tspan></text>
  </g>
</svg>
