<?xml version="1.0" encoding="UTF-8" standalone="no"?>
<!-- Created with Inkscape (http://www.inkscape.org/) -->

<svg
   xmlns:dc="http://purl.org/dc/elements/1.1/"
   xmlns:cc="http://creativecommons.org/ns#"
   xmlns:rdf="http://www.w3.org/1999/02/22-rdf-syntax-ns#"
   xmlns:svg="http://www.w3.org/2000/svg"
   xmlns="http://www.w3.org/2000/svg"
   xmlns:sodipodi="http://sodipodi.sourceforge.net/DTD/sodipodi-0.dtd"
   xmlns:inkscape="http://www.inkscape.org/namespaces/inkscape"
   width="210mm"
   height="210mm"
   viewBox="0 0 210 210"
   version="1.1"
   id="svg8"
   sodipodi:docname="pluto.svg"
   inkscape:version="0.92.1 r15371">
  <defs
     id="defs2" />
  <sodipodi:namedview
     id="base"
     pagecolor="#ffffff"
     bordercolor="#666666"
     borderopacity="1.0"
     inkscape:pageopacity="0.0"
     inkscape:pageshadow="2"
     inkscape:zoom="1"
     inkscape:cx="387.40662"
     inkscape:cy="406.87661"
     inkscape:document-units="mm"
     inkscape:current-layer="layer2"
     showgrid="false"
     inkscape:snap-grids="true"
     inkscape:window-width="2560"
     inkscape:window-height="1377"
     inkscape:window-x="-8"
     inkscape:window-y="-8"
     inkscape:window-maximized="1" />
  <metadata
     id="metadata5">
    <rdf:RDF>
      <cc:Work
         rdf:about="">
        <dc:format>image/svg+xml</dc:format>
        <dc:type
           rdf:resource="http://purl.org/dc/dcmitype/StillImage" />
        <dc:title></dc:title>
      </cc:Work>
    </rdf:RDF>
  </metadata>
  <g
     inkscape:label="Background"
     inkscape:groupmode="layer"
     id="layer1"
     transform="translate(0,-87)" />
  <g
     inkscape:groupmode="layer"
     id="layer2"
     inkscape:label="Planet"
     style="display:inline">
    <path
       style="fill:#c87137;fill-opacity:1;stroke-width:0.92055064"
       d="M 397 37.701172 A 371 360 0 0 0 26 397.70117 A 371 360 0 0 0 397 757.70117 A 371 360 0 0 0 768 397.70117 A 371 360 0 0 0 397 37.701172 z M 396 165.70117 A 231.5833 230.99995 0 0 1 627.58398 396.70117 A 231.5833 230.99995 0 0 1 396 627.70117 A 231.5833 230.99995 0 0 1 164.41602 396.70117 A 231.5833 230.99995 0 0 1 396 165.70117 z "
       transform="scale(0.26458333)"
       id="path3699" />
  </g>
  <g
     inkscape:groupmode="layer"
     id="layer4"
     inkscape:label="Herz"
     style="display:inline"
     sodipodi:insensitive="true">
    <path
       style="fill:#abc837;stroke-width:0.35876721"
       d="m 134.25169,124.08148 c 7.5514,-36.500632 38.92897,-26.449567 37.46279,1.16065 21.48401,-32.151403 38.61442,-13.5126 32.87073,9.80415 -2.66103,13.06485 -15.64608,33.83582 -32.38653,48.12598 -16.74045,14.29016 -34.0613,22.62867 -50.42097,24.32236 -23.647897,2.44823 -30.247468,-7.93882 -30.247468,-7.93882 3.80834,0.4218 5.454163,0.61794 10.729218,0.85225 0,0 4.97645,1.44727 7.28391,1.01835 23.25995,-4.32359 18.44341,-34.08862 24.70832,-77.34492 z"
       id="path11369"
       inkscape:connector-curvature="0"
       sodipodi:nodetypes="cccssccsc" />
  </g>
</svg>
