<?xml version="1.0" encoding="UTF-8" standalone="no"?>
<!-- Created with Inkscape (http://www.inkscape.org/) -->

<svg
   xmlns:dc="http://purl.org/dc/elements/1.1/"
   xmlns:cc="http://creativecommons.org/ns#"
   xmlns:rdf="http://www.w3.org/1999/02/22-rdf-syntax-ns#"
   xmlns:svg="http://www.w3.org/2000/svg"
   xmlns="http://www.w3.org/2000/svg"
   xmlns:sodipodi="http://sodipodi.sourceforge.net/DTD/sodipodi-0.dtd"
   xmlns:inkscape="http://www.inkscape.org/namespaces/inkscape"
   width="871mm"
   height="297mm"
   viewBox="0 0 871 297"
   version="1.1"
   id="svg11396"
   inkscape:version="0.92.1 r15371"
   sodipodi:docname="plutotext.svg"
   inkscape:export-filename="C:\Users\masinger\Pictures\plutotext200.png"
   inkscape:export-xdpi="5.8323765"
   inkscape:export-ydpi="5.8323765">
  <defs
     id="defs11390" />
  <sodipodi:namedview
     id="base"
     pagecolor="#ffffff"
     bordercolor="#666666"
     borderopacity="1.0"
     inkscape:pageopacity="0.0"
     inkscape:pageshadow="2"
     inkscape:zoom="1"
     inkscape:cx="663.51931"
     inkscape:cy="454.7939"
     inkscape:document-units="mm"
     inkscape:current-layer="layer1"
     showgrid="false"
     inkscape:window-width="2560"
     inkscape:window-height="1377"
     inkscape:window-x="-8"
     inkscape:window-y="-8"
     inkscape:window-maximized="1" />
  <metadata
     id="metadata11393">
    <rdf:RDF>
      <cc:Work
         rdf:about="">
        <dc:format>image/svg+xml</dc:format>
        <dc:type
           rdf:resource="http://purl.org/dc/dcmitype/StillImage" />
        <dc:title></dc:title>
      </cc:Work>
    </rdf:RDF>
  </metadata>
  <g
     inkscape:label="Layer 1"
     inkscape:groupmode="layer"
     id="layer1">
    <text
       xml:space="preserve"
       style="font-style:normal;font-weight:normal;font-size:336.49588013px;line-height:1.25;font-family:sans-serif;letter-spacing:0px;word-spacing:0px;fill:#483e37;fill-opacity:1;stroke:none;stroke-width:8.41239643;"
       x="-2.3452485"
       y="270.20663"
       id="text11400"><tspan
         sodipodi:role="line"
         id="tspan11398"
         x="-2.3452485"
         y="270.20663"
         style="line-height:1.25;letter-spacing:0px;fill:#483e37;fill-opacity:1;stroke-width:8.41239643;">Plut</tspan></text>
    <g
       id="g11416"
       transform="translate(647.99636,71.208125)">
      <g
         transform="translate(0,-87)"
         id="layer1-4"
         inkscape:label="Background" />
      <g
         style="display:inline"
         inkscape:label="Planet"
         id="layer2">
        <path
           id="path3699"
           transform="scale(0.26458333)"
           d="M 397,37.701172 A 371,360 0 0 0 26,397.70117 a 371,360 0 0 0 371,360 371,360 0 0 0 371,-360 A 371,360 0 0 0 397,37.701172 Z m -1,127.999998 a 231.5833,230.99995 0 0 1 231.58398,231 231.5833,230.99995 0 0 1 -231.58398,231 231.5833,230.99995 0 0 1 -231.58398,-231 231.5833,230.99995 0 0 1 231.58398,-231 z"
           style="fill:#c87137;fill-opacity:1;stroke-width:0.92055064"
           inkscape:connector-curvature="0" />
      </g>
      <g
         style="display:inline"
         inkscape:label="Herz"
         id="layer4">
        <path
           sodipodi:nodetypes="cccssccsc"
           inkscape:connector-curvature="0"
           id="path11369"
           d="m 134.25169,124.08148 c 7.5514,-36.500632 38.92897,-26.449567 37.46279,1.16065 21.48401,-32.151403 38.61442,-13.5126 32.87073,9.80415 -2.66103,13.06485 -15.64608,33.83582 -32.38653,48.12598 -16.74045,14.29016 -34.0613,22.62867 -50.42097,24.32236 -23.647897,2.44823 -30.247468,-7.93882 -30.247468,-7.93882 3.80834,0.4218 5.454163,0.61794 10.729218,0.85225 0,0 4.97645,1.44727 7.28391,1.01835 23.25995,-4.32359 18.44341,-34.08862 24.70832,-77.34492 z"
           style="fill:#abc837;stroke-width:0.35876721" />
      </g>
    </g>
  </g>
</svg>
